# xmcd
#
# Track frame offsets:
#	150
#	2784
#	17479
#	32224
#	44911
#	64615
#	77968
#	94600
#	107533
#	124117
#	139486
#	158638
#	179288
#	199154
#
# Disc length: 2883 seconds
#
# Revision: 0
# Processed by: cddbd v1.5.2PL0 Copyright (c) Steve Scherf et al.
# Submitted via: EasyCDDAExtractor 9.1.3.1
#
DISCID=ba0b410e
DTITLE=Joss Stone - Introducing Joss Stone 
DYEAR=2007
DGENRE=Soul
TTITLE0=Change - Joss Stone and Vinnie Jones
TTITLE1=Girl They Won't Believe It
TTITLE2=Headturner 
TTITLE3=Tell Me 'Bout It
TTITLE4=Tell Me What We're Gonna Do Now
TTITLE5=Put Your Hands On Me 
TTITLE6=Music 
TTITLE7=Arms Of My Baby
TTITLE8=Bad Habit 
TTITLE9=Proper Nice
TTITLE10=Bruised But Not Broken
TTITLE11=Baby Baby Baby 
TTITLE12=What Were We Thinking v
TTITLE13=Music
EXTD=
EXTT0=
EXTT1=
EXTT2=
EXTT3=
EXTT4=
EXTT5=
EXTT6=
EXTT7=
EXTT8=
EXTT9=
EXTT10=
EXTT11=
EXTT12=
EXTT13=
PLAYORDER=
